<svg width="36" height="35" viewBox="0 0 36 35" fill="none" xmlns="http://www.w3.org/2000/svg">
    <path fill-rule="evenodd" clip-rule="evenodd" d="M17.9426 0C8.02933 0 0 8.02933 0 17.9426C0 25.8823 5.13608 32.5883 12.2683 34.9657C13.1654 35.1227 13.5018 34.5844 13.5018 34.1134C13.5018 33.6873 13.4794 32.2743 13.4794 30.7716C8.97132 31.6015 7.80505 29.6726 7.44619 28.6634C7.24434 28.1475 6.36964 26.5551 5.60707 26.129C4.97908 25.7925 4.08195 24.9627 5.58465 24.9403C6.99763 24.9178 8.0069 26.2411 8.34333 26.7794C9.95816 29.4932 12.5374 28.7307 13.5691 28.2597C13.7261 27.0934 14.1971 26.3084 14.713 25.8598C10.7207 25.4113 6.54906 23.8637 6.54906 17.0007C6.54906 15.0494 7.24434 13.4346 8.38818 12.1786C8.20876 11.73 7.58076 9.89088 8.56761 7.42377C8.56761 7.42377 10.0703 6.95277 13.5018 9.26289C14.9372 8.85918 16.4624 8.65732 17.9875 8.65732C19.5126 8.65732 21.0377 8.85918 22.4732 9.26289C25.9047 6.93035 27.4074 7.42377 27.4074 7.42377C28.3942 9.89088 27.7662 11.73 27.5868 12.1786C28.7306 13.4346 29.4259 15.027 29.4259 17.0007C29.4259 23.8861 25.2318 25.4113 21.2396 25.8598C21.89 26.4205 22.4507 27.4971 22.4507 29.1792C22.4507 31.579 22.4283 33.5079 22.4283 34.1134C22.4283 34.5844 22.7647 35.1451 23.6619 34.9657C27.2237 33.7631 30.3188 31.4739 32.5116 28.4202C34.7043 25.3665 35.8842 21.7021 35.8853 17.9426C35.8853 8.02933 27.8559 0 17.9426 0Z" fill="white"/>
    </svg>
